<?xml version="1.0" encoding="UTF-8" standalone="no"?>
<!DOCTYPE svg PUBLIC "-//W3C//DTD SVG 20010904//EN"
              "http://www.w3.org/TR/2001/REC-SVG-20010904/DTD/svg10.dtd">

<svg xmlns="http://www.w3.org/2000/svg"
     width="2in" height="2in"
     viewBox="0 0 600 600">
  <path id="Selection"
        fill="#FFFFFF" stroke="#FFFFFF" stroke-width="1"
        d="M 266.00,35.42
           C 266.00,35.42 250.00,36.09 250.00,36.09
             250.00,36.09 228.00,39.45 228.00,39.45
             187.82,47.53 148.97,67.73 120.28,97.17
             102.01,115.92 86.76,137.85 76.43,162.00
             45.44,234.42 57.50,319.11 107.61,380.00
             120.08,395.15 138.42,411.39 155.00,421.95
             202.01,451.87 257.49,462.27 312.00,451.20
             330.73,447.40 348.99,440.89 366.00,432.24
             370.07,430.17 382.19,421.54 386.00,423.01
             388.25,423.89 393.08,429.08 395.00,431.00
             395.00,431.00 412.00,448.00 412.00,448.00
             412.00,448.00 482.00,519.00 482.00,519.00
             498.70,535.70 511.21,550.10 537.00,545.68
             563.60,541.11 577.35,510.87 566.96,487.00
             561.68,474.87 547.46,462.46 538.00,453.00
             538.00,453.00 478.00,394.00 478.00,394.00
             478.00,394.00 455.00,371.00 455.00,371.00
             452.84,368.84 447.22,363.87 446.72,361.00
             446.27,358.41 449.27,354.22 450.60,352.00
             454.51,345.47 457.98,339.00 461.00,332.00
             469.45,312.42 478.75,282.34 479.04,261.00
             479.04,261.00 479.04,252.00 479.04,252.00
             479.04,252.00 479.82,245.00 479.82,245.00
             479.82,245.00 479.00,230.00 479.00,230.00
             478.93,215.74 472.40,188.72 467.66,175.00
             445.06,109.69 388.81,58.91 322.00,42.13
             308.93,38.84 295.52,36.02 282.00,36.00
             282.00,36.00 266.00,35.42 266.00,35.42 Z
           M 255.00,108.28
           C 278.47,106.10 302.18,109.61 324.00,118.45
             339.41,124.70 354.29,135.31 366.00,147.00
             405.69,186.63 417.33,241.34 398.69,294.00
             393.31,309.21 384.64,323.99 373.83,336.00
             362.42,348.68 349.20,359.88 334.00,367.74
             317.66,376.20 295.50,382.97 277.00,383.00
             277.00,383.00 260.00,383.00 260.00,383.00
             248.38,382.86 232.96,378.98 222.00,375.05
             209.80,370.68 198.43,364.88 188.00,357.10
             135.66,318.08 118.12,251.07 142.45,191.00
             149.04,174.74 159.68,160.32 172.00,148.00
             184.32,135.68 198.74,125.04 215.00,118.45
             229.58,112.54 239.67,110.54 255.00,108.28 Z" />
</svg>
